<?xml version="1.0" encoding="UTF-8" standalone="no"?>
<svg viewBox="0 0 744.09448819 1052.3622047" xmlns="http://www.w3.org/2000/svg" xmlns:xlink="http://www.w3.org/1999/xlink">
<defs>
<linearGradient id="linearGradient3834">
<stop offset="0" stop-color="#d35f5f"/>
<stop offset="1" stop-color="#d35f5f" stop-opacity="0"/>
</linearGradient>
<linearGradient id="linearGradient3816">
<stop offset="0" stop-color="#e9afaf"/>
<stop offset="1" stop-color="#e9afaf" stop-opacity="0"/>
</linearGradient>
<linearGradient id="linearGradient3786">
<stop offset="0" stop-color="#de8787"/>
<stop offset="1" stop-color="#de8787" stop-opacity="0"/>
</linearGradient>
<linearGradient gradientUnits="userSpaceOnUse" id="linearGradient4013" x1="188.39098" x2="155.93375" y1="660.96368" y2="644.8736">
<stop offset="0" stop-color="#ff8080"/>
<stop offset="1" stop-color="#faa"/>
</linearGradient>
<linearGradient gradientUnits="userSpaceOnUse" id="linearGradient4361" x1="777.99188" x2="458.25116" y1="557.76758" y2="672.24707">
<stop offset="0" stop-color="#d18787"/>
<stop offset="1" stop-color="#d18787" stop-opacity="0"/>
</linearGradient>
<linearGradient gradientUnits="userSpaceOnUse" id="linearGradient3714" x1="435.97321" x2="550.5067">
<stop offset="0" stop-color="#782121"/>
<stop offset="1" stop-color="#782121" stop-opacity="0"/>
</linearGradient>
<linearGradient gradientUnits="userSpaceOnUse" id="linearGradient4333" x1="204.41234" x2="197.52203" xlink:href="#linearGradient3786" y1="333.81354" y2="450.60901"/>
<linearGradient gradientUnits="userSpaceOnUse" id="linearGradient4429" x1="219.8055" x2="254.81629" xlink:href="#linearGradient3834" y1="813.0385" y2="793.07757"/>
<linearGradient gradientUnits="userSpaceOnUse" id="linearGradient3766" x1="371.74949" x2="344.7036" xlink:href="#linearGradient3816" y1="466.82212" y2="501.95992"/>
<linearGradient gradientUnits="userSpaceOnUse" id="linearGradient3784" x1="544.33398" x2="540.88885" xlink:href="#linearGradient3834" y1="898.47876" y2="792.82739"/>
<linearGradient gradientUnits="userSpaceOnUse" id="linearGradient3792" x1="429.70747" x2="409.34386" xlink:href="#linearGradient3786" y1="889.62095" y2="637.53711"/>
<linearGradient gradientUnits="userSpaceOnUse" id="linearGradient3822" x1="636.47658" x2="600.26549" xlink:href="#linearGradient3816" y1="831.38636" y2="788.98775"/>
<linearGradient gradientUnits="userSpaceOnUse" id="linearGradient3840" x1="613.70459" x2="612.08862" xlink:href="#linearGradient3834" y1="843.17963" y2="779.57678"/>
</defs>
<path d="m579.74641,564.12785c26.48175,19.109 51.4278,13.36862 71.16216-7.31079 16.68997-17.4892-20.79613-40.94036-20.93005-40.94036-15.04989,0-8.30398,24.92795-15.3487,17.54587-8.85469-9.27871-8.79762-43.35659 12.55803-32.16743 35.3912,18.54301 60.28991,63.45161 13.95337,87.72936-30.60688,16.03628-60.79827-5.64742-61.39481-24.85665z" fill="#d35f5f"/>
<path d="m243.302,477.72446c-39.65912-29.78204-56.50643-40.45605-63.95732-23.66609s-3.6065,31.90934-.15788,44.93899 8.93729,25.26156 8.93729,25.26156l55.17791-46.53446z" fill="#d35f5f"/>
<path d="m284.03859,465.23731c-47.12183,0-87.84591,27.88417-107.14046,68.33694-19.01087,9.76239-32.2892,31.92137-32.2892,57.69998 0,28.77729 16.55321,53.04261 39.15198,60.58717 12.94052,20.5474 31.78421,36.86129 54.11372,46.43351 2.32127,10.65515 5.64125,20.98663 9.8466,30.91226l-26.08711,32.62719-.9804,1.21565c-.60122.75169-1.03639,1.5942-1.3214,2.49643-26.50805,43.8273-11.1467,59.32809-11.1467,59.32809l31.6498-6.14338c0,0-.11909,36.38362 7.71531,31.8457l47.48537-27.5258-.44757-.36904c.89086-.50351 1.68626-1.15746 2.32312-1.95372l11.59427-14.47927c14.78181,11.2024 31.3048,20.5458 49.14778,27.67776l2.72807,19.4287 .21313,1.56298c.13466.95979.43743,1.84488.89514,2.67006 13.64723,49.56394 35.25171,48.58267 35.25171,48.58267l17.05041-27.85148c0,0 26.13724,24.74538 28.17578,15.80352l10.18762-44.6752c40.56606-2.02369 78.01153-14.71659 109.03732-35.01507l5.20037,14.69634 .51151,1.47615c.32252.91218.79451,1.73925 1.40666,2.45301 23.20995,45.72689 44.18185,40.29017 44.18185,40.29017l11.1467-30.78204c0,0 30.53439,18.85874 30.75467,9.68178l1.3214-55.63772-.55414.19537c.0355-1.03712-.0846-2.05111-.42626-3.01742l-22.05895-62.34551c9.5179-21.63038 14.76991-45.23777 14.76991-69.96503 0-103.97595-92.58333-188.27389-206.77875-188.27389-30.24307,0-58.95495,5.91776-84.84707,16.54154-19.95806-15.389-44.82025-24.5084-71.78219-24.5084z" fill="#a02c2c"/>
<path d="m284.03859,465.23731c-47.12183,0-87.84591,27.88417-107.14046,68.33694-19.01087,9.76239-32.2892,31.92137-32.2892,57.69998 0,28.77729 16.55321,53.04261 39.15198,60.58717 12.94052,20.5474 31.78421,36.86129 54.11372,46.43351 2.32127,10.65515 5.64125,20.98663 9.8466,30.91226l-26.08711,32.62719-.9804,1.21565c-.60122.75169-1.03639,1.5942-1.3214,2.49643-26.50805,43.8273-11.1467,59.32809-11.1467,59.32809l31.6498-6.14338c0,0-.11909,36.38362 7.71531,31.8457l47.48537-27.5258-.44757-.36904c.89086-.50351 1.68626-1.15746 2.32312-1.95372l11.59427-14.47927c14.78181,11.2024 31.3048,20.5458 49.14778,27.67776l2.72807,19.4287 .21313,1.56298c.13466.95979.43743,1.84488.89514,2.67006 13.64723,49.56394 35.25171,48.58267 35.25171,48.58267l17.05041-27.85148c0,0 26.13724,24.74538 28.17578,15.80352l10.18762-44.6752c40.56606-2.02369 78.01153-14.71659 109.03732-35.01507l5.20037,14.69634 .51151,1.47615c.32252.91218.79451,1.73925 1.40666,2.45301 23.20995,45.72689 44.18185,40.29017 44.18185,40.29017l11.1467-30.78204c0,0 30.53439,18.85874 30.75467,9.68178l1.3214-55.63772-.55414.19537c.0355-1.03712-.0846-2.05111-.42626-3.01742l-22.05895-62.34551c9.5179-21.63038 14.76991-45.23777 14.76991-69.96503 0-103.97595-92.58333-188.27389-206.77875-188.27389-30.24307,0-58.95495,5.91776-84.84707,16.54154-19.95806-15.389-44.82025-24.5084-71.78219-24.5084z" fill="#de8787"/>
<path d="m264.1283,380.55759a66.60627,70.05142 0 1,1 -133.21254,0 66.60627,70.05142 0 1,1 133.21254,0z" fill="#faa" transform="matrix(.68202,0,0,.76298,63.16224,300.11129)"/>
<path d="m838.32027,672.24707a226.23164,189.48335 0 1,1 -452.46329,0 226.23164,189.48335 0 1,1 452.46329,0z" fill="url(#linearGradient4361)" opacity=".79327" transform="matrix(.77895,0,0,.80833,-19.66785,98.92686)"/>
<path d="m838.32027,672.24707a226.23164,189.48335 0 1,1 -452.46329,0 226.23164,189.48335 0 1,1 452.46329,0z" fill="url(#linearGradient3840)" opacity=".79327" transform="matrix(.48468,0,0,.60204,-21.25412,177.77623)"/>
<path d="m264.1283,380.55759a66.60627,70.05142 0 1,1 -133.21254,0 66.60627,70.05142 0 1,1 133.21254,0z" fill="url(#linearGradient4333)" opacity=".79327" transform="matrix(.68202,0,0,.76298,60.02938,299.6721)"/>
<path d="m257.8753,780.2901-18.15649-35.44644c-9.57069,9.00604-52.47761,73.95911-21.17224,75.00738l26.70681-8.92299c0,0-.37601,34.75338 7.28782,29.92267l41.76129-21.30352-.46907-.3674c.87195-.53677 7.90333-12.37792 8.51078-13.19768l-44.4689-25.69202z" fill="url(#linearGradient4429)"/>
<g transform="matrix(.59562,0,0,.57186,115.05435,134.84525)">
<path d="m199.7594,285.80579c0,23.32053-18.17791,42.22556-40.6015,42.22556s-40.60151-18.90503-40.60151-42.22556 18.17792-42.22557 40.60151-42.22557 40.6015,18.90503 40.6015,42.22557z" fill="#fff" fill-opacity=".79232" transform="translate(-6.49624,373.53384)"/>
<path d="m-56.84211,362.13663c0,9.86638-8.36184,17.86466-18.67669,17.86466s-18.67669-7.99828-18.67669-17.86466 8.36184-17.86466 18.67669-17.86466 18.67669,7.99828 18.67669,17.86466z" fill-opacity=".79232" transform="matrix(1.24849,0,0,1.21433,236.38941,218.77566)"/>
<path d="m153.02749,617.12359c-14.78789,0-27.71359,8.21176-34.8125,20.5l73.375,35c1.32821-4.17445 2.0625-8.6436 2.0625-13.28125 0-23.32053-18.20141-42.21875-40.625-42.21875z" fill="#ff8080" fill-opacity=".79232"/>
<path d="m153.02749,617.12359c-14.78789,0-27.71359,8.21176-34.8125,20.5l73.375,35c1.32821-4.17445 2.0625-8.6436 2.0625-13.28125 0-23.32053-18.20141-42.21875-40.625-42.21875z" fill="url(#linearGradient4013)"/>
<path d="m-73.08271,373.50504c0,8.96943-6.90761,16.2406-15.42857,16.2406s-15.42857-7.27117-15.42857-16.2406 6.90761-16.24061 15.42857-16.24061 15.42857,7.27117 15.42857,16.24061z" fill="#fff" transform="matrix(1,0,0,.8,240.3609,378.40026)"/>
</g>
<g transform="matrix(.68202,0,0,.723,168.11323,64.51922)">
<path d="m199.7594,285.80579c0,23.32053-18.17791,42.22556-40.6015,42.22556s-40.60151-18.90503-40.60151-42.22556 18.17792-42.22557 40.60151-42.22557 40.6015,18.90503 40.6015,42.22557z" fill="#fff" fill-opacity=".79232" transform="translate(-6.49624,373.53384)"/>
<path d="m-56.84211,362.13663c0,9.86638-8.36184,17.86466-18.67669,17.86466s-18.67669-7.99828-18.67669-17.86466 8.36184-17.86466 18.67669-17.86466 18.67669,7.99828 18.67669,17.86466z" fill-opacity=".79232" transform="matrix(1.24849,0,0,1.21433,236.38941,218.77566)"/>
<path d="m153.02749,617.12359c-14.78789,0-27.71359,8.21176-34.8125,20.5l73.375,35c1.32821-4.17445 2.0625-8.6436 2.0625-13.28125 0-23.32053-18.20141-42.21875-40.625-42.21875z" fill="#ff8080" fill-opacity=".79232"/>
<path d="m153.02749,617.12359c-14.78789,0-27.71359,8.21176-34.8125,20.5l73.375,35c1.32821-4.17445 2.0625-8.6436 2.0625-13.28125 0-23.32053-18.20141-42.21875-40.625-42.21875z" fill="url(#linearGradient4013)"/>
<path d="m-73.08271,373.50504c0,8.96943-6.90761,16.2406-15.42857,16.2406s-15.42857-7.27117-15.42857-16.2406 6.90761-16.24061 15.42857-16.24061 15.42857,7.27117 15.42857,16.24061z" fill="#fff" transform="matrix(1,0,0,.8,240.3609,378.40026)"/>
</g>
<path d="m550.3228,519.47252c-28.1958-17.55013-78.32164-35.10028-112.78315-31.90934-18.72001,1.73336-50.12585,9.5728-50.12585,9.5728l37.59438,19.14561c0,0 40.72725-14.3592 65.79017-7.97733s62.65731,12.76373 59.52445,11.16826z" fill="url(#linearGradient3714)"/>
<path d="m311.4383,478.09781c47.91049-18.97939 67.8126-25.11835 71.71523-6.90952s-3.5277,31.94733-10.07164,43.75282-15.02175,22.3211-15.02175,22.3211l-46.62184-59.1644z" fill="#de8787"/>
<path d="m308.30544,481.28874c47.91049-18.97938 67.8126-25.11835 71.71523-6.90952s-3.52769,31.94733-10.07164,43.75282-15.02175,22.3211-15.02175,22.3211l-46.62184-59.1644z" fill="url(#linearGradient3766)"/>
<path d="m739.27456,798.60458a198.67043,107.94809 0 1,1 -.83646-17.22936l-197.54925,11.45217z" fill="url(#linearGradient3784)" transform="matrix(.6899,0,0,.69466,66.72978,219.21734)"/>
<path d="m377.48919,763.49987c-9.19488.9198-16.35923,6.41468-16.23506,12.58469l1.32075,65.61811 .0315,1.56486c.0195.96933.21073,1.9001.56692,2.77564 7.65119,50.88282 29.21986,52.55885 29.21986,52.55885l20.22406-25.54653c0,0 23.01322,27.808 26.10036,19.18359l18.71759-52.28056-.59164.007c.35897-.9712.55184-1.98227.53115-3.00912l-1.3522-67.1829c-.12818-6.36903-7.98998-10.97065-17.61079-10.32969l-60.03603,4.00019c-.30063.0201-.58984.0291-.88643.0591z" fill="url(#linearGradient3792)"/>
<path d="m546.41432,762.88588 21.74134,60.23125c9.30447,21.36502 19.34376,38.33323 43.07212,41.98804l9.05282-30.85553c0,0 31.31257,19.10169 31.2093,10.02078l-3.75586-56.64473-.49756.2177-22.75697-64.64101-13.53438-2.05703c-9.78694-1.48747-60.03064,13.17233-64.53081,41.74053z" fill="#de8787"/>
<path d="m495.49765,509.10199c-51.69227-7.97735-69.70625,11.16827-69.70625,11.16827l-39.16081-25.52748" fill="none" opacity=".41346" stroke="#eedede" stroke-opacity=".69767" stroke-width="4.12985"/>
<path d="m548.33983,722.31139c-7.84889,3.34554-2.40338,32.51782-.35908,38.18129l18.60846,62.62445c9.30448,21.36498 21.69342,46.31065 45.42178,49.96546l14.53534-32.45109c0,0 27.39649,18.30403 27.29323,9.22303l1.72666-53.45377-29.52028-75.59158c-2.11026-5.84616-20.91671-22.70388-29.08745-19.22115l-48.61866,20.72336z" fill="url(#linearGradient3822)"/>
<path d="m159.49785,610.41415c38.7336,15.53641 66.57339,10.63016 66.57339,10.63016s-22.99809,13.0833-37.52319,9.81247-27.83978-20.44263-29.0502-20.44263z" fill="#a02c2c"/>
<path d="m767.12051,630.90527a41.34182,44.78698 0 1,1 -82.68365,0 41.34182,44.78698 0 1,1 82.68365,0z" fill="#a02c2c" fill-opacity=".79232" opacity=".41346" transform="matrix(.44089,0,0,.44906,257.42459,301.21765)"/>
<path d="m548.92752,611.38275a45.93536,50.52889 0 1,1 -91.87072,0 45.93536,50.52889 0 1,1 91.87072,0z" fill="#a02c2c" fill-opacity=".79232" opacity=".41346" transform="matrix(.56145,0,0,.57186,149.70706,230.65297)"/>
<path d="m629.3144,740.00177a48.23212,50.52889 0 1,1 -96.46425,0 48.23212,50.52889 0 1,1 96.46425,0z" fill="#a02c2c" fill-opacity=".79232" opacity=".41346" transform="matrix(.52126,0,0,.53093,142.55363,277.86048)"/>
<path d="m670.65625,560.85382a45.93536,43.63859 0 1,1 -91.87072,0 45.93536,43.63859 0 1,1 91.87072,0z" fill="#fff" fill-opacity=".79232" transform="matrix(.44089,0,0,.44906,218.38859,315.02936)"/>
<path d="m670.65625,560.85382a45.93536,43.63859 0 1,1 -91.87072,0 45.93536,43.63859 0 1,1 91.87072,0z" fill="#fff" fill-opacity=".79232" transform="matrix(.53734,0,0,.5473,179.79453,316.17481)"/>
<path d="m215.0962,568.14112c-6.48837,0-11.74346,5.18203-11.74346,11.57039 0,.17731.0133.34562.0213.52099 1.54132-1.07932 3.41447-1.73664 5.45613-1.73664 5.1907,0 9.39903,4.11587 9.39903,9.1825 0,1.17796-.22501,2.30834-.63939,3.34304 5.29945-1.11927 9.27116-5.75782 9.27116-11.30989 0-6.38836-5.2764-11.57039-11.76478-11.57039z" fill="#501616" fill-opacity=".79232"/>
<path d="m173.98267,559.1556c-6.48838,0-11.74347,5.18203-11.74347,11.57039 0,.17732.0133.34562.0213.52099 1.54132-1.07931 3.41447-1.73664 5.45613-1.73664 5.1907,0 9.39904,4.11588 9.39904,9.1825 0,1.17797-.22501,2.30834-.63939,3.34304 5.29944-1.11926 9.27115-5.75781 9.27115-11.30989 0-6.38836-5.2764-11.57039-11.76478-11.57039z" fill="#501616" fill-opacity=".79232"/>
</svg>
